<svg xmlns="http://www.w3.org/2000/svg" width="235" height="314" viewBox="0 0 235 314"><rect width="100%" height="100%" fill="#DDDDDD"/><path fill="#999999" d="M54.32 164.885h5.94q.64 0 1.02.36.37.36.37.95v2.37H45.78v-1.31q0-.4.17-.84t.53-.79l7.03-7.04q.88-.9 1.57-1.72.7-.81 1.16-1.61.47-.8.72-1.63.24-.82.24-1.73 0-.83-.24-1.47-.24-.63-.68-1.06t-1.05-.65q-.62-.21-1.39-.21-.7 0-1.3.2t-1.06.56q-.47.36-.79.84t-.48 1.05q-.27.74-.7.98t-1.25.11l-2.08-.37q.24-1.66.93-2.92.69-1.25 1.72-2.09t2.37-1.27q1.33-.42 2.87-.42 1.6 0 2.93.47 1.32.47 2.27 1.34.94.86 1.47 2.08.53 1.21.53 2.7 0 1.28-.38 2.37-.37 1.09-1.01 2.08-.63.99-1.48 1.92-.84.93-1.77 1.89l-5.22 5.32q.75-.22 1.5-.34.74-.12 1.41-.12m12.61-12.64-2.08-.37q.24-1.66.93-2.92.69-1.25 1.72-2.09t2.37-1.27q1.33-.42 2.87-.42 1.6 0 2.89.45 1.29.46 2.2 1.27t1.4 1.89q.49 1.09.49 2.36 0 1.1-.25 1.94t-.71 1.46q-.47.63-1.16 1.06-.68.43-1.55.72 2.08.66 3.11 2 1.02 1.34 1.02 3.38 0 1.72-.64 3.05t-1.73 2.23q-1.09.91-2.52 1.37-1.43.47-3.03.47-1.74 0-3.04-.4t-2.26-1.19q-.96-.78-1.63-1.92-.67-1.13-1.15-2.62l1.74-.72q.69-.29 1.29-.15.6.13.87.64.29.56.64 1.11.34.54.82.97.48.42 1.13.68.65.27 1.54.27 1.01 0 1.76-.33t1.26-.86q.5-.52.75-1.17t.25-1.31q0-.83-.18-1.51-.17-.68-.73-1.16t-1.61-.75-2.81-.27v-2.82q1.46-.01 2.42-.27t1.52-.71q.57-.46.8-1.1.22-.64.22-1.41 0-1.63-.91-2.48-.91-.84-2.43-.84-.71 0-1.3.2t-1.06.56q-.48.36-.8.84t-.48 1.05q-.27.74-.71.98t-1.24.11m22.07-3.23-.82 4.81q.77-.16 1.47-.23.71-.07 1.36-.07 1.83 0 3.22.54 1.39.55 2.33 1.51.95.96 1.43 2.25.48 1.28.48 2.77 0 1.84-.65 3.36t-1.8 2.6-2.73 1.67q-1.57.6-3.43.6-1.09 0-2.06-.23-.98-.22-1.84-.6-.85-.37-1.58-.86t-1.3-1.03l1.21-1.68q.39-.55 1.01-.55.4 0 .82.26.41.25.95.56.53.3 1.26.56.73.25 1.75.25 1.09 0 1.92-.35.84-.35 1.39-.98t.83-1.51q.28-.87.28-1.89 0-1.89-1.1-2.95-1.09-1.07-3.24-1.07-1.64 0-3.37.61l-2.47-.7 1.92-11.24h11.43v1.68q0 .85-.53 1.38t-1.79.53zm35.85 14.25-2.09 2.07-5.43-5.43-5.47 5.46-2.1-2.06 5.48-5.49-5.22-5.22 2.08-2.08 5.22 5.22 5.18-5.19 2.11 2.08-5.2 5.2zm13.31-11.02-2.08-.37q.24-1.66.93-2.92.69-1.25 1.72-2.09t2.37-1.27q1.34-.42 2.87-.42 1.6 0 2.89.45 1.29.46 2.2 1.27t1.4 1.89q.49 1.09.49 2.36 0 1.1-.25 1.94t-.71 1.46q-.47.63-1.15 1.06-.69.43-1.56.72 2.08.66 3.11 2 1.02 1.34 1.02 3.38 0 1.72-.64 3.05t-1.73 2.23q-1.08.91-2.52 1.37-1.43.47-3.03.47-1.74 0-3.04-.4-1.29-.4-2.25-1.19-.96-.78-1.64-1.92-.67-1.13-1.15-2.62l1.75-.72q.68-.29 1.28-.15.6.13.88.64.28.56.63 1.11.34.54.82.97.48.42 1.13.68.65.27 1.54.27 1.01 0 1.76-.33.76-.33 1.26-.86.5-.52.75-1.17t.25-1.31q0-.83-.18-1.51-.17-.68-.73-1.16t-1.61-.75-2.81-.27v-2.82q1.46-.01 2.42-.27t1.53-.71q.56-.46.79-1.1.22-.64.22-1.41 0-1.63-.91-2.48-.91-.84-2.43-.84-.71 0-1.3.2t-1.06.56-.79.84-.48 1.05q-.28.74-.72.98t-1.24.11m27.16 13.36h4.16v2.96h-12.8v-2.96h4.68v-13.49q0-.8.05-1.65l-3.33 2.79q-.28.22-.56.28-.28.05-.53.01-.25-.05-.44-.17t-.29-.27l-1.25-1.71 7.06-6h3.25zm10.51-5.76h7.04v-7.57q0-1.07.14-2.37zm10.48 0h2.91v2.29q0 .32-.21.55t-.59.23h-2.11v5.65h-3.44v-5.65h-9.76q-.4 0-.71-.25-.3-.24-.38-.61l-.42-2 10.96-14.64h3.75z"/></svg>
